<svg width="236" height="38" viewBox="0 0 236 38" fill="none" xmlns="http://www.w3.org/2000/svg">
<path d="M19.4922 36C28.8811 36 36.4922 28.3888 36.4922 19C36.4922 9.61116 28.8811 2 19.4922 2C10.1034 2 2.49222 9.61116 2.49222 19C2.49222 28.3888 10.1034 36 19.4922 36Z" stroke="#21AFBF" stroke-width="3.75"/>
<path d="M17.7691 9.28125H33.3179L36.9848 17.0556H19.9589C19.0259 17.0556 18.2615 17.8201 18.2615 18.753C18.2615 19.686 17.497 20.4505 16.564 20.4505H10.9794C7.72716 20.4505 11.4589 9.28125 17.7691 9.28125Z" stroke="#21AFBF" stroke-width="1.5" stroke-linecap="round" stroke-linejoin="round"/>
<path d="M21.2157 28.2239H5.66692L2 20.4495H19.0259C19.9588 20.4495 20.7233 19.685 20.7233 18.7521C20.7233 17.8192 21.4878 17.0547 22.4207 17.0547H28.0053C31.2576 17.0547 27.5259 28.2239 21.2157 28.2239Z" stroke="#21AFBF" stroke-width="1.5" stroke-linecap="round" stroke-linejoin="round"/>
<path d="M20.4644 19.4924C19.6092 19.1296 18.7152 20.0755 18.5467 19.324C18.5079 19.1296 18.5986 18.9223 18.7281 18.7798L19.5963 17.8339C19.9461 17.4452 20.5681 17.5099 20.6588 18.0282C20.8013 18.8316 20.6458 19.5961 20.4515 19.5054L20.4644 19.4924Z" fill="#21AFBF" stroke="#21AFBF" stroke-width="1.25" stroke-linecap="round" stroke-linejoin="round"/>
<path d="M53.9072 13.5578V30.0136H50.7975V8.24533H53.6222L64.8821 24.7011H64.9468V8.24533H68.0566V30.0136H65.2319L53.972 13.5578H53.9072ZM75.222 20.2179V27.2148H84.5254V30.0136H72.1122V8.24533H84.5254V11.0441H75.222V17.4191H82.6595V20.2179H75.222ZM113.317 8.24533L107.719 30.0136H104.013L99.4133 12.5731H99.3485L94.7487 30.0136H91.0429L85.4453 8.24533H88.4644L92.8828 26.0357H92.9476L97.6382 8.24533H101.124L105.788 26.0357H105.853L110.297 8.24533H113.317ZM115.493 18.5075V10.176L119.095 8.08984H126.339L129.941 10.176V13.3764H126.831V10.8886H118.59V17.4839H126.339L129.941 19.57V28.0959L126.339 30.1821H118.784L115.182 28.0959V24.8955H118.292V27.3833H126.844V20.6066H119.095L115.493 18.5205V18.5075ZM159.47 30.0136V12.288H159.406L153.005 30.0136H149.895L143.52 12.288H143.455V30.0136H140.501V8.24533H144.881L151.411 26.4115H151.476L158.032 8.24533H162.412V30.0136H159.458H159.47ZM175.926 8.24533L183.701 30.0136H180.656L178.816 24.8566H169.175L167.336 30.0136H164.291L172.065 8.24533H175.926ZM173.957 11.3292L170.16 22.0578H177.805L174.009 11.3292H173.944H173.957ZM185.566 30.0136V8.24533H188.676V19.7514H188.741L198.355 8.24533H202.087L193.535 18.4168L203.085 30.0136H199.288L191.643 20.6584L188.689 24.1699V30.0136H185.579H185.566ZM207.736 20.2179V27.2148H217.04V30.0136H204.627V8.24533H217.04V11.0441H207.736V17.4191H215.174V20.2179H207.736ZM227.639 21.3322H222.948V30.0136H219.839V8.24533H231.008L234.61 10.3315V19.2591L231.008 21.3452L236.009 30.0266H232.563L227.652 21.3452L227.639 21.3322ZM222.948 11.0441V18.5334H231.5V11.0441H222.948Z" fill="#21AFBF"/>
</svg>
